<?xml version="1.0" encoding="UTF-8"?>
<svg width="132px" height="41px" viewBox="0 0 132 41" version="1.1" xmlns="http://www.w3.org/2000/svg" xmlns:xlink="http://www.w3.org/1999/xlink">
    <!-- Generator: Sketch 60.1 (88133) - https://sketch.com -->
    <title>app</title>
    <desc>Created with Sketch.</desc>
    <g id="app" stroke="none" stroke-width="1" fill="none" fill-rule="evenodd" transform="translate(0.000000, 0.000000)">
        <g id="app-store" transform="translate(0.000000, -0.000000)" fill-rule="nonzero">
            <path d="M8.477,39.9981 C8.13507,39.9981 7.8023,39.9933 7.46444,39.9867 C6.76345,39.978 6.06411,39.9208 5.37216,39.8156 C4.72675,39.712 4.10148,39.5191 3.51699,39.2433 C2.93791,38.9694 2.40979,38.6102 1.95286,38.1795 C1.48958,37.7542 1.10389,37.261 0.811065,36.7193 C0.514953,36.1741 0.310063,35.5896 0.203529,34.9863 C0.0881055,34.3383 0.02551,33.683 0.0162824,33.0261 C0.0101765,32.8056 0,32.0707 0,32.0707 L0,7.91596 C0,7.91596 0.0101765,7.19348 0.0162824,6.98054 C0.0254412,6.3246 0.0875177,5.66961 0.202512,5.02222 C0.309118,4.41745 0.513993,3.83143 0.810047,3.28446 C1.40556,2.19635 2.35263,1.31097 3.51699,0.753856 C4.09967,0.478549 4.72332,0.286595 5.36707,0.184424 C6.06132,0.0785038 6.76308,0.0213055 7.46648,0.0133089 L8.477,0 L123.517,0 L124.54,0.0123583 C125.237,0.020914 125.932,0.0770017 126.62,0.183473 C127.27,0.286032 127.901,0.478928 128.49,0.755757 C129.652,1.31514 130.597,2.20001 131.193,3.28636 C131.485,3.82917 131.687,4.41096 131.793,5.01081 C131.908,5.66295 131.974,6.32269 131.987,6.98434 C131.99,7.27999 131.99,7.59845 131.99,7.91501 C132,8.30668 132,8.68028 132,9.05578 L132,30.9414 C132,31.3216 132,31.6924 131.99,32.066 C131.99,32.4063 131.99,32.7172 131.986,33.0385 C131.973,33.6881 131.909,34.3359 131.794,34.9768 C131.69,35.5844 131.486,36.1734 131.19,36.7231 C130.895,37.2589 130.511,37.7478 130.053,38.1719 C129.595,38.6044 129.066,38.9655 128.486,39.2414 C127.898,39.5192 127.269,39.7128 126.62,39.8156 C125.928,39.9211 125.229,39.9781 124.527,39.9867 C124.2,39.9933 123.856,39.9971 123.523,39.9971 L122.309,40 L8.477,39.9981 Z" id="路径" fill="#000000"></path>
            <path d="M49.3972,27.4587 L44.7696,27.4587 L43.6585,30.7404 L41.6976,30.7404 L46.0816,18.5982 L48.118,18.5982 L52.502,30.7404 L50.5083,30.7404 L49.3972,27.4587 Z M45.2487,25.944 L48.9171,25.944 L47.1091,20.6178 L47.0576,20.6178 L45.2478,25.944 L45.2487,25.944 Z M61.9687,26.3147 C61.9687,29.0658 60.4967,30.8329 58.2754,30.8329 C57.7125,30.8625 57.1526,30.7329 56.6599,30.4591 C56.1672,30.1852 55.7616,29.7781 55.4896,29.2844 L55.4478,29.2844 L55.4478,33.6684 L53.63,33.6684 L53.63,21.888 L55.39,21.888 L55.39,23.36 L55.4229,23.36 C55.7074,22.869 56.1197,22.4642 56.6158,22.1887 C57.112,21.9133 57.6735,21.7774 58.2407,21.7955 C60.4887,21.7955 61.9687,23.5707 61.9687,26.3147 Z M60.102,26.3147 C60.102,24.5218 59.1749,23.344 57.7625,23.344 C56.374,23.344 55.4398,24.5467 55.4398,26.3147 C55.4398,28.0978 56.3731,29.2924 57.7625,29.2924 C59.1758,29.2924 60.102,28.1227 60.102,26.3147 Z M71.7127,26.3147 C71.7127,29.0658 70.2407,30.8329 68.0185,30.8329 C67.4556,30.8625 66.8957,30.7329 66.403,30.4591 C65.9103,30.1852 65.5047,29.7781 65.2327,29.2844 L65.1909,29.2844 L65.1909,33.6684 L63.374,33.6684 L63.374,21.888 L65.1323,21.888 L65.1323,23.36 L65.166,23.36 C65.4506,22.8688 65.863,22.464 66.3593,22.1885 C66.8556,21.913 67.4174,21.7772 67.9847,21.7955 C70.2318,21.7955 71.7127,23.5707 71.7127,26.3147 Z M69.8451,26.3147 C69.8451,24.5218 68.9189,23.344 67.5056,23.344 C66.1171,23.344 65.1829,24.5467 65.1829,26.3147 C65.1829,28.0978 66.1171,29.2924 67.5056,29.2924 C68.9189,29.2924 69.8451,28.1227 69.8451,26.3147 Z M78.1527,27.3573 C78.2869,28.5609 79.4567,29.352 81.0549,29.352 C82.5865,29.352 83.6887,28.5609 83.6887,27.4755 C83.6887,26.5333 83.0238,25.9689 81.4505,25.5822 L79.8772,25.2027 C77.6469,24.664 76.6123,23.6213 76.6123,21.9298 C76.6123,19.8347 78.438,18.3955 81.03,18.3955 C83.5963,18.3955 85.3545,19.8347 85.414,21.9298 L83.5794,21.9298 C83.47,20.7182 82.4683,19.9867 81.0043,19.9867 C79.5403,19.9867 78.5394,20.7262 78.5394,21.8035 C78.5394,22.6622 79.1794,23.1671 80.7438,23.5538 L82.0816,23.8827 C84.5732,24.4711 85.6078,25.472 85.6078,27.248 C85.6078,29.52 83.798,30.9422 80.9207,30.9422 C78.2274,30.9422 76.4096,29.5529 76.2923,27.3573 L78.1527,27.3573 Z M89.5296,19.7929 L89.5296,21.888 L91.2132,21.888 L91.2132,23.3262 L89.5287,23.3262 L89.5287,28.2062 C89.5287,28.9653 89.8656,29.3182 90.606,29.3182 C90.8052,29.3147 91.0052,29.3004 91.2034,29.2764 L91.2034,30.7075 C90.8707,30.7687 90.5327,30.7966 90.1945,30.7911 C88.4016,30.7911 87.7029,30.1173 87.7029,28.4 L87.7029,23.3262 L86.4158,23.3262 L86.4158,21.888 L87.7029,21.888 L87.7029,19.7929 L89.5296,19.7929 Z M92.1874,26.3147 C92.1874,23.5289 93.8283,21.7787 96.3865,21.7787 C98.9527,21.7787 100.586,23.5298 100.586,26.3147 C100.586,29.1075 98.9616,30.8498 96.3865,30.8498 C93.8123,30.8498 92.1874,29.1075 92.1874,26.3147 Z M98.734,26.3147 C98.734,24.4035 97.8585,23.2764 96.3865,23.2764 C94.9136,23.2764 94.0398,24.4124 94.0398,26.3147 C94.0398,28.2329 94.9136,29.352 96.3865,29.352 C97.8585,29.352 98.734,28.232 98.734,26.3147 Z M102.084,21.888 L103.818,21.888 L103.818,23.3947 L103.859,23.3947 C103.976,22.924 104.252,22.508 104.64,22.2166 C105.027,21.9252 105.504,21.7762 105.988,21.7947 C106.198,21.7947 106.406,21.8169 106.61,21.8631 L106.61,23.5627 C106.346,23.4818 106.071,23.4446 105.794,23.4524 C105.53,23.4417 105.267,23.4883 105.023,23.589 C104.779,23.6896 104.559,23.842 104.379,24.0355 C104.199,24.2291 104.063,24.4593 103.981,24.7103 C103.898,24.9613 103.871,25.2272 103.901,25.4898 L103.901,30.7404 L102.084,30.7404 L102.084,21.888 Z M114.989,28.1404 C114.745,29.7475 113.179,30.8498 111.177,30.8498 C108.602,30.8498 107.003,29.1253 107.003,26.3564 C107.003,23.5795 108.61,21.7787 111.101,21.7787 C113.55,21.7787 115.09,23.4613 115.09,26.1458 L115.09,26.768 L108.838,26.768 L108.838,26.8773 C108.809,27.2031 108.85,27.5313 108.958,27.8401 C109.065,28.1489 109.238,28.4313 109.463,28.6685 C109.688,28.9056 109.961,29.0922 110.264,29.2157 C110.567,29.3392 110.893,29.3969 111.219,29.3849 C111.649,29.4252 112.08,29.3259 112.448,29.1017 C112.816,28.8774 113.102,28.5403 113.264,28.1404 L114.989,28.1404 Z M108.846987,25.4978 L113.272,25.4978 C113.288,25.2049 113.244,24.9119 113.141,24.6371 C113.039,24.3622 112.881,24.1115 112.677,23.9006 C112.473,23.6897 112.228,23.5232 111.957,23.4115 C111.686,23.2998 111.394,23.2453 111.101,23.2515 C110.805,23.2497 110.512,23.3064 110.238,23.4185 C109.964,23.5306 109.715,23.6959 109.506,23.9047 C109.296,24.1136 109.13,24.3619 109.016,24.6353 C108.903,24.9087 108.846,25.2018 108.846987,25.4978 Z M45.0212,9.45865 C45.402,9.43144 45.7842,9.48907 46.1401,9.62739 C46.4961,9.76571 46.8169,9.98127 47.0794,10.2585 C47.342,10.5358 47.5398,10.8679 47.6585,11.2308 C47.7772,11.5937 47.8139,11.9785 47.766,12.3573 C47.766,14.2213 46.7589,15.2933 45.0212,15.2933 L42.9136,15.2933 L42.9136,9.45865 L45.0212,9.45865 Z M43.8194,14.4675 L44.9198,14.4675 C45.192,14.4838 45.4643,14.4392 45.717,14.3369 C45.9698,14.2346 46.1965,14.0773 46.3808,13.8764 C46.565,13.6754 46.7021,13.4359 46.7822,13.1753 C46.8622,12.9147 46.8831,12.6395 46.8434,12.3698 C46.8801,12.1011 46.8569,11.8277 46.7756,11.569 C46.6943,11.3104 46.5568,11.0729 46.373,10.8735 C46.1892,10.6742 45.9637,10.5179 45.7124,10.4159 C45.4612,10.3139 45.1905,10.2687 44.9198,10.2835 L43.8194,10.2835 L43.8194,14.4675 Z M48.79,13.0898 C48.7619,12.8002 48.7947,12.5079 48.8862,12.2316 C48.9778,11.9554 49.1261,11.7015 49.3216,11.486 C49.5172,11.2705 49.7556,11.0983 50.0217,10.9805 C50.2877,10.8627 50.5755,10.8018 50.8665,10.8018 C51.1575,10.8018 51.4452,10.8627 51.7113,10.9805 C51.9773,11.0983 52.2158,11.2705 52.4113,11.486 C52.6069,11.7015 52.7552,11.9554 52.8468,12.2316 C52.9383,12.5079 52.9711,12.8002 52.9429,13.0898 C52.9711,13.3794 52.9383,13.6717 52.8468,13.9479 C52.7552,14.2241 52.6069,14.4781 52.4113,14.6936 C52.2158,14.909 51.9773,15.0812 51.7113,15.199 C51.4452,15.3169 51.1575,15.3777 50.8665,15.3777 C50.5755,15.3777 50.2877,15.3169 50.0217,15.199 C49.7556,15.0812 49.5172,14.909 49.3216,14.6936 C49.1261,14.4781 48.9778,14.2241 48.8862,13.9479 C48.7947,13.6717 48.7619,13.3794 48.79,13.0898 Z M52.0487,13.0898 C52.0487,12.1351 51.6203,11.5769 50.8674,11.5769 C50.1118,11.5769 49.6878,12.1351 49.6878,13.0898 C49.6878,14.0515 50.1127,14.6053 50.8674,14.6053 C51.6203,14.6053 52.0487,14.048 52.0487,13.0898 Z M58.4629,15.2933 L57.5616,15.2933 L56.6514,12.0498 L56.582,12.0498 L55.6763,15.2933 L54.7838,15.2933 L53.5696,10.8898 L54.4514,10.8898 L55.2398,14.2498 L55.3047,14.2498 L56.2105,10.8898 L57.0434,10.8898 L57.9491,14.2498 L58.0176,14.2498 L58.8025,10.8898 L59.6718,10.8898 L58.4629,15.2933 Z M60.6923,10.8898 L61.5278,10.8898 L61.5278,11.5893 L61.5936,11.5893 C61.7035,11.338 61.8892,11.1273 62.1248,10.9867 C62.3604,10.8461 62.634,10.7827 62.9074,10.8053 C63.1216,10.7891 63.3368,10.8214 63.5369,10.8996 C63.7369,10.9779 63.9169,11.1002 64.0633,11.2575 C64.2097,11.4147 64.3188,11.6029 64.3826,11.808 C64.4464,12.0132 64.4632,12.2301 64.4318,12.4427 L64.4318,15.2924 L63.5625,15.2924 L63.5625,12.6613 C63.5625,11.9529 63.2549,11.6018 62.6123,11.6018 C62.4668,11.5949 62.3216,11.6196 62.1866,11.6742 C62.0515,11.7287 61.9299,11.8118 61.83,11.9178 C61.7301,12.0238 61.6544,12.1501 61.6079,12.2881 C61.5614,12.4261 61.5453,12.5725 61.5607,12.7173 L61.5607,15.2933 L60.6923,15.2933 L60.6923,10.8898 Z M65.8158,9.17154 L66.6852,9.17154 L66.6852,15.2933 L65.8158,15.2933 L65.8158,9.17065 L65.8158,9.17154 Z M67.8931,13.0898 C67.865,12.8002 67.8978,12.5079 67.9893,12.2316 C68.0809,11.9554 68.2292,11.7015 68.4247,11.486 C68.6203,11.2705 68.8587,11.0983 69.1248,10.9805 C69.3909,10.8627 69.6786,10.8018 69.9696,10.8018 C70.2606,10.8018 70.5483,10.8627 70.8144,10.9805 C71.0804,11.0983 71.3189,11.2705 71.5145,11.486 C71.71,11.7015 71.8583,11.9554 71.9499,12.2316 C72.0414,12.5079 72.0742,12.8002 72.046,13.0898 C72.0742,13.3794 72.0414,13.6717 71.9499,13.9479 C71.8583,14.2241 71.71,14.4781 71.5145,14.6936 C71.3189,14.909 71.0804,15.0812 70.8144,15.199 C70.5483,15.3169 70.2606,15.3777 69.9696,15.3777 C69.6786,15.3777 69.3909,15.3169 69.1248,15.199 C68.8587,15.0812 68.6203,14.909 68.4247,14.6936 C68.2292,14.4781 68.0809,14.2241 67.9893,13.9479 C67.8978,13.6717 67.865,13.3794 67.8931,13.0898 Z M71.1518,13.0898 C71.1518,12.1351 70.7234,11.5769 69.9705,11.5769 C69.2149,11.5769 68.79,12.1351 68.79,13.0898 C68.79,14.0515 69.2149,14.6053 69.9705,14.6053 C70.7234,14.6053 71.1518,14.048 71.1518,13.0898 Z M72.9607,14.048 C72.9607,13.2551 73.5509,12.7982 74.598,12.7333 L75.7909,12.6649 L75.7909,12.2844 C75.7909,11.8195 75.4834,11.5573 74.8896,11.5573 C74.4043,11.5573 74.0683,11.7351 73.9723,12.0462 L73.1305,12.0462 C73.2194,11.2907 73.9305,10.8053 74.9296,10.8053 C76.0336,10.8053 76.6558,11.3547 76.6558,12.2844 L76.6558,15.2933 L75.8203,15.2933 L75.8203,14.6738 L75.7509,14.6738 C75.4665,15.1262 74.9616,15.3902 74.4283,15.3653 C74.2435,15.3846 74.0567,15.3649 73.8799,15.3075 C73.7032,15.2502 73.5405,15.1564 73.4022,15.0323 C73.2639,14.9082 73.1532,14.7564 73.0772,14.5869 C73.0011,14.4174 72.9614,14.2338 72.9607,14.048 Z M75.7909,13.672 L75.7909,13.3031 L74.7154,13.3724 C74.1091,13.4124 73.8345,13.6187 73.8345,14.0071 C73.8345,14.4035 74.1785,14.6338 74.6505,14.6338 C74.7889,14.6478 74.9288,14.6338 75.0618,14.5927 C75.1947,14.5516 75.3181,14.4842 75.4245,14.3945 C75.5309,14.3048 75.6181,14.1946 75.6811,14.0705 C75.744,13.9463 75.7814,13.8108 75.7909,13.672 Z M77.798,13.0898 C77.798,11.6987 78.5136,10.8169 79.6256,10.8169 C79.9009,10.8042 80.174,10.8702 80.4132,11.0072 C80.6523,11.1442 80.8474,11.3464 80.9758,11.5902 L81.0407,11.5902 L81.0407,9.17065 L81.91,9.17065 L81.91,15.2924 L81.0771,15.2924 L81.0771,14.5964 L81.0087,14.5964 C80.8701,14.8384 80.668,15.0379 80.4242,15.1732 C80.1804,15.3086 79.9043,15.3747 79.6256,15.3644 C78.5056,15.3644 77.798,14.4835 77.798,13.0889 L77.798,13.0898 Z M78.6958,13.0898 C78.6958,14.0231 79.1358,14.5858 79.8718,14.5858 C80.6043,14.5858 81.0567,14.0151 81.0567,13.0933 C81.0567,12.176 80.5998,11.5973 79.8718,11.5973 C79.1403,11.5973 78.6958,12.1635 78.6958,13.0898 Z M85.5047,13.0898 C85.4766,12.8002 85.5093,12.5079 85.6009,12.2316 C85.6924,11.9554 85.8407,11.7015 86.0363,11.486 C86.2318,11.2705 86.4703,11.0983 86.7364,10.9805 C87.0024,10.8627 87.2902,10.8018 87.5812,10.8018 C87.8721,10.8018 88.1599,10.8627 88.4259,10.9805 C88.692,11.0983 88.9305,11.2705 89.126,11.486 C89.3216,11.7015 89.4699,11.9554 89.5614,12.2316 C89.653,12.5079 89.6857,12.8002 89.6576,13.0898 C89.6857,13.3794 89.653,13.6717 89.5614,13.9479 C89.4699,14.2241 89.3216,14.4781 89.126,14.6936 C88.9305,14.909 88.692,15.0812 88.4259,15.199 C88.1599,15.3169 87.8721,15.3777 87.5812,15.3777 C87.2902,15.3777 87.0024,15.3169 86.7364,15.199 C86.4703,15.0812 86.2318,14.909 86.0363,14.6936 C85.8407,14.4781 85.6924,14.2241 85.6009,13.9479 C85.5093,13.6717 85.4766,13.3794 85.5047,13.0898 Z M88.7634,13.0898 C88.7634,12.1351 88.3349,11.5769 87.582,11.5769 C86.8265,11.5769 86.4025,12.1351 86.4025,13.0898 C86.4025,14.0515 86.8274,14.6053 87.5829,14.6053 C88.3349,14.6053 88.7634,14.048 88.7634,13.0898 Z M90.8229,10.8898 L91.6594,10.8898 L91.6594,11.5893 L91.7243,11.5893 C91.95,11.0738 92.478,10.7591 93.0389,10.8053 C93.2531,10.7893 93.4681,10.8216 93.6681,10.9 C93.8681,10.9783 94.0479,11.1006 94.1942,11.2578 C94.3405,11.4151 94.4496,11.6032 94.5133,11.8083 C94.5771,12.0134 94.5939,12.2302 94.5625,12.4427 L94.5625,15.2924 L93.6932,15.2924 L93.6932,12.6613 C93.6932,11.9529 93.3865,11.6018 92.7438,11.6018 C92.5984,11.5949 92.4531,11.6196 92.3181,11.6742 C92.1831,11.7287 92.0615,11.8118 91.9616,11.9178 C91.8617,12.0238 91.7859,12.1501 91.7394,12.2881 C91.6929,12.4261 91.6768,12.5725 91.6923,12.7173 L91.6923,15.2933 L90.8229,15.2933 L90.8229,10.8898 Z M99.4718,9.79377 L99.4718,10.9102 L100.426,10.9102 L100.426,11.6418 L99.4727,11.6418 L99.4727,13.9058 C99.4727,14.368 99.662,14.5689 100.095,14.5689 C100.206,14.5689 100.317,14.5618 100.426,14.5493 L100.426,15.2729 C100.27,15.3008 100.112,15.3157 99.9536,15.3173 C98.9874,15.3173 98.6025,14.9769 98.6025,14.1289 L98.6025,11.6418 L97.9038,11.6418 L97.9038,10.9102 L98.6025,10.9102 L98.6025,9.79288 L99.4727,9.79288 L99.4718,9.79377 Z M101.614,9.17154 L102.474,9.17154 L102.474,11.5982 L102.543,11.5982 C102.78,11.0782 103.316,10.7627 103.885,10.8089 C104.098,10.7972 104.312,10.8327 104.509,10.9128 C104.707,10.993 104.885,11.1159 105.03,11.2728 C105.175,11.4296 105.284,11.6165 105.348,11.8201 C105.412,12.0237 105.431,12.239 105.402,12.4507 L105.402,15.2933 L104.532,15.2933 L104.532,12.664 C104.532,11.9609 104.205,11.6044 103.59,11.6044 C103.441,11.5923 103.291,11.613 103.15,11.6649 C103.01,11.7169 102.882,11.7989 102.777,11.9052 C102.671,12.0115 102.59,12.1396 102.539,12.2805 C102.489,12.4214 102.469,12.5717 102.482,12.7209 L102.482,15.2924 L101.613,15.2924 L101.613,9.17065 L101.614,9.17154 Z M110.468,14.1049 C110.35,14.5071 110.094,14.8551 109.746,15.0877 C109.397,15.3204 108.977,15.4231 108.561,15.3778 C108.271,15.3854 107.982,15.3298 107.716,15.2149 C107.449,15.0999 107.211,14.9284 107.018,14.7121 C106.824,14.4958 106.68,14.2401 106.595,13.9625 C106.511,13.685 106.487,13.3923 106.527,13.1049 C106.488,12.8166 106.512,12.5234 106.597,12.2452 C106.682,11.9669 106.825,11.7101 107.018,11.4921 C107.21,11.2741 107.447,11.0999 107.713,10.9814 C107.978,10.863 108.266,10.8029 108.557,10.8053 C109.782,10.8053 110.522,11.6418 110.522,13.0249 L110.522,13.3271 L107.412,13.3271 L107.412,13.3769 C107.399,13.5384 107.419,13.701 107.472,13.8542 C107.525,14.0074 107.609,14.1479 107.72,14.2666 C107.83,14.3853 107.964,14.4797 108.113,14.5437 C108.262,14.6077 108.423,14.6399 108.585,14.6382 C109.01,14.6889 109.424,14.4782 109.632,14.1049 L110.468,14.1049 Z M107.412,12.6853 L109.636,12.6853 C109.647,12.5375 109.627,12.389 109.577,12.2494 C109.527,12.1099 109.449,11.9822 109.347,11.8748 C109.245,11.7674 109.121,11.6826 108.984,11.6257 C108.847,11.5689 108.7,11.5414 108.552,11.5449 C108.402,11.5431 108.253,11.5714 108.113,11.6281 C107.974,11.6847 107.848,11.7687 107.742,11.875 C107.636,11.9812 107.552,12.1077 107.495,12.2469 C107.439,12.386 107.41,12.5351 107.412,12.6853 Z M32.254,20.7707 C32.2646,19.9546 32.4814,19.1545 32.8842,18.4447 C33.287,17.7349 33.8628,17.1386 34.558,16.7111 C34.1163,16.0804 33.5337,15.5613 32.8563,15.1952 C32.1789,14.829 31.4255,14.6258 30.6558,14.6018 C29.014,14.4293 27.422,15.584 26.5847,15.584 C25.7323,15.584 24.4443,14.6187 23.0567,14.6471 C22.1594,14.6762 21.285,14.9372 20.5186,15.4046 C19.7521,15.8721 19.1199,16.5302 18.6834,17.3147 C16.7927,20.5884 18.2034,25.4 20.014,28.0471 C20.9207,29.3431 21.9794,30.7902 23.3651,30.7387 C24.7216,30.6827 25.2283,29.8738 26.8656,29.8738 C28.4878,29.8738 28.9634,30.7387 30.3767,30.7067 C31.8318,30.6827 32.7492,29.4044 33.6238,28.0969 C34.2749,27.1734 34.7759,26.1528 35.1083,25.0729 C34.2627,24.7152 33.5411,24.1165 33.0335,23.3514 C32.5259,22.5864 32.2548,21.6888 32.254,20.7707 Z M29.5829,12.8613 C30.3765,11.9087 30.7674,10.6842 30.6727,9.44799 C29.4605,9.57547 28.3408,10.155 27.5367,11.0711 C27.1436,11.5185 26.8425,12.0391 26.6506,12.6029 C26.4587,13.1668 26.3799,13.763 26.4185,14.3573 C27.0247,14.3635 27.6245,14.2321 28.1726,13.973 C28.7208,13.7139 29.203,13.3338 29.5829,12.8613 Z" id="形状" fill="#FFFFFF"></path>
        </g>
        <rect id="矩形" fill="#000000" x="38" y="3" width="83" height="32"></rect>
        <text id="Download-on-the" opacity="0.9" font-family="PingFangSC-Regular, PingFang SC" font-size="9" font-weight="normal" fill="#FFFFFF">
            <tspan x="41.5" y="15">Download on the</tspan>
        </text>
        <text id="App-Store" font-family="PingFangSC-Medium, PingFang SC" font-size="15" font-weight="400" fill="#FFFFFF">
            <tspan x="41.5" y="30">App Store</tspan>
        </text>
    </g>
</svg>